name 900006_25rea_lsw
datacolumns 54
datarows 4
range 0.9133300000000002 0.9493300000000002
cursor 1.0 1.0 0.0
keys m_key
wrap
enforce_loops no
enforce_constraints no
calc_derivatives 0.012000
event_color 1.000000 0.000000 1.000000
endheader

time	calcn_r_tx	calcn_r_ty	calcn_r_tz	calcn_r_r1	calcn_r_r2	calcn_r_r3	calcn_l_tx	calcn_l_ty	calcn_l_tz	calcn_l_r1	calcn_l_r2	calcn_l_r3	pelvis_tz	pelvis_tx	pelvis_ty	pelvis_tilt	pelvis_list	pelvis_rotation	hip_flexion_r	hip_adduction_r	hip_rotation_r	knee_angle_r	ankle_angle_r	subtalar_angle_r	mtp_angle_r	hip_flexion_l	hip_adduction_l	hip_rotation_l	knee_angle_l	ankle_angle_l	subtalar_angle_l	mtp_angle_l	lumbar_extension	lumbar_bending	lumbar_rotation	ground_force_px	ground_force_py	ground_force_pz	ground_force_vx	ground_force_vy	ground_force_vz	ground_force_px	ground_force_py	ground_force_pz	ground_force_vx	ground_force_vy	ground_force_vz	ground_torque_x	ground_torque_y	ground_torque_z	ground_torque_x	ground_torque_y	ground_torque_z	
      0.9133300000000002	     -1.6204178231238355	      0.0375559152632810	      0.3394257222441054	      2.8911620816979497	     -1.9823608584357768	     -0.5197872104969208	     -1.9771167943729075	      0.1684034249840675	      0.2117520913092304	      0.9654634548087906	      4.8973148012131134	    -55.3699718808127270	      0.2895177849002688	     -1.5869255862477760	      0.8261632756674529	      2.9260867793088527	     -0.8065854575699185	     -2.2408920702326149	     14.1421277630561770	      3.9732186250959729	     -0.3844685925252355	    -20.6065340009266540	      2.9736080663411664	      0.0000000000000000	      0.0000000000000000	     -6.8823984334358785	     -0.5893042186504093	     -5.1477992108389046	    -40.7739980215761830	    -10.8406221226980220	      0.0000000000000000	      0.0000000000000000	     -7.2425142929474546	      5.6783000700753004	     -3.4962533018799080	     -1.5599559560421148	      0.0000000000000000	      0.3350477466013045	    -39.5024351987319590	    425.5788460334314300	    -17.7189792371494870	     -1.9145426362520503	      0.0000000000000000	      0.2169419249016229	      0.0791296462727466	     -0.2354283351666241	     -0.0142613070182750	      0.0000000000000000	     -0.7538656781294263	      0.0000000000000000	      0.0000000000000000	     -0.0054622559725000	      0.0000000000000000	
      0.9253300000000002	     -1.6203710065291304	      0.0376933358076118	      0.3391801150565231	      2.9559621951910815	     -1.9872681431713093	     -0.6134960399111039	     -1.9623637953945952	      0.1712479998410683	      0.2121284259079950	      1.0319861477943428	      4.8577679713080375	    -56.3972968982816520	      0.2912750806720597	     -1.5795154859855625	      0.8275269622301726	      3.0246345528078438	     -0.6733867225116867	     -2.3470107158050055	     13.3021066016109460	      3.9945996534816182	     -0.1694171500089904	    -20.3603600283544250	      3.3767369878002107	      0.0000000000000000	      0.0000000000000000	     -5.6785875874996288	     -0.5576829759565393	     -5.0461464869289170	    -42.3368597542055270	    -11.6209149253638310	      0.0000000000000000	      0.0000000000000000	     -7.5602880482833585	      5.5019155248284246	     -3.6947955571296820	     -1.5569245062398596	      0.0000000000000000	      0.3351829805559938	    -39.1236497446634030	    431.3366516316390900	    -18.7798416690640760	     -1.9133377599771042	      0.0000000000000000	      0.2176065422383660	     -0.0147095637798395	      0.0849674730967897	      0.0032919870757516	      0.0000000000000000	     -0.7882012820891913	      0.0000000000000000	      0.0000000000000000	      0.0013976283348474	      0.0000000000000000	
      0.9373300000000002	     -1.6203501587974576	      0.0377505135480703	      0.3389709851635788	      3.0060136469895111	     -1.9728922529287536	     -0.6798056280867894	     -1.9472231163319100	      0.1728166704171988	      0.2122431180620669	      1.0008968018352118	      4.6312463355858782	    -56.6355269567275740	      0.2929346287597884	     -1.5722151901780750	      0.8287883025244216	      3.0899672507325331	     -0.4949004344521818	     -2.4468083743218005	     12.4950954170659060	      3.9589386806078459	      0.0720186945765228	    -20.0921634580805560	      3.7874126090258375	      0.0000000000000000	      0.0000000000000000	     -4.4452832524813086	     -0.4409086378818973	     -4.8618844302134763	    -43.7118784616670410	    -11.7850981352792670	      0.0000000000000000	      0.0000000000000000	     -7.8114247964997805	      5.2733081932387300	     -3.8910488005592754	     -1.5539810196496913	      0.0000000000000000	      0.3350981349933034	    -38.5075760169565700	    435.1241538229014600	    -18.8911026221499120	     -1.9121463453865326	      0.0000000000000000	      0.2184457306885358	     -0.0008429332225952	     -0.0096671410172996	     -0.0000407436762399	      0.0000000000000000	     -0.7855839119707023	      0.0000000000000000	      0.0000000000000000	     -0.0000519390271191	      0.0000000000000000	
      0.9493300000000002	     -1.6203531692329030	      0.0377349319078006	      0.3387925860694784	      3.0411869030705159	     -1.9582016371812543	     -0.6968025158210668	     -1.9316416355934249	      0.1730961560603175	      0.2120884119286815	      0.8781374730975878	      4.2248597161274493	    -56.1314715228271770	      0.2944630800297825	     -1.5650290893884158	      0.8299706256925757	      3.1244664117663663	     -0.2920284054030424	     -2.5367973479076822	     11.7056322887000270	      3.8814670605392325	      0.3144964716278522	    -19.7776467049506760	      4.2166723814627476	      0.0000000000000000	      0.0000000000000000	     -3.1819002480012992	     -0.2579279982561649	     -4.5943642472363049	    -44.8937390412168680	    -11.3889632132709530	      0.0000000000000000	      0.0000000000000000	     -8.0051345368994724	      5.0267382067288997	     -4.0765796230711526	     -1.5512684998407040	      0.0000000000000000	      0.3348405960915271	    -37.5268364822154370	    437.4617300520750400	    -18.0031073816734800	     -1.9109823507753192	      0.0000000000000000	      0.2193943861576675	      0.0013625490633718	     -0.0026943036473405	     -0.0002235209934003	      0.0000000000000000	     -0.7445946958348789	      0.0000000000000000	      0.0000000000000000	     -0.0000822134848426	      0.0000000000000000	
